PathFileType	4	(X/Y/Z)	/Users/visionmauri/1_1_1_f_Sports2D/1_1_1_f_Sports2D_m_person00.trc
DataRate	CameraRate	NumFrames	NumMarkers	Units	OrigDataRate	OrigDataStartFrame	OrigNumFrames
30.0	30.0	10	22	m	30.0	179	358
Frame#	Time	Hip			RHip			RKnee			RAnkle			RBigToe			RSmallToe			RHeel			LHip			LKnee			LAnkle			LBigToe			LSmallToe			LHeel			Neck			Head			Nose			RShoulder			RElbow			RWrist			LShoulder			LElbow			LWrist			
		X1	Y1	Z1	X2	Y2	Z2	X3	Y3	Z3	X4	Y4	Z4	X5	Y5	Z5	X6	Y6	Z6	X7	Y7	Z7	X8	Y8	Z8	X9	Y9	Z9	X10	Y10	Z10	X11	Y11	Z11	X12	Y12	Z12	X13	Y13	Z13	X14	Y14	Z14	X15	Y15	Z15	X16	Y16	Z16	X17	Y17	Z17	X18	Y18	Z18	X19	Y19	Z19	X20	Y20	Z20	X21	Y21	Z21	X22	Y22	Z22
179	5.983380018674136	0.5763937351310698	0.838708747959163	0.0301	0.5337947690306142	0.809843550354014	0.0301	0.5763428226496099	0.5085554548861797	0.129	0.7671755720129633	0.27877325952121096	0.023	0.7017022726009736	0.15917654560331015	0.2179	0.7005817385654649	0.17807301607345993	0.1804	0.8208588646544254	0.24773997821350735	-0.0119	0.6266563765326879	0.85686397243817	0.0301	0.741490215137466	0.5807560557362934	0.129	0.8995251157293824	0.2727138102046827	0.023	0.8222855836298985	0.18591819982154945	0.2179	0.8709523704717468	0.19034217796427433	0.1804	0.9505108245437494	0.2346051214083159	-0.0119	0.41127800116258134	1.2587386639191258	0.0008	0.28539089632716264	1.4287469845359184	0.0655	0.2873806813688966	1.2969704750543447	0.1076	0.3729204935792606	1.1611522316099179	-0.01275	0.3898531259727657	0.9561279135567468	0.0702	0.35552608219725856	0.770190067633875	0.1076	0.523999936959974	1.2452270587176684	-0.01275	0.6650653050636179	1.0615642407708459	0.0702	0.6980480504048838	0.8766823061883179	0.1076
180	6.016806722689076	0.568702979158995	0.8345163186836629	0.0301	0.5246084234250433	0.8061092142218991	0.0301	0.5761505626931415	0.5035989948249388	0.129	0.7423578973647855	0.25930967293515467	0.023	0.6818595490076501	0.14796383245186923	0.2179	0.6765136114100203	0.1632938019181709	0.1804	0.792234403336421	0.2273930845705543	-0.0119	0.620309904707044	0.8529344924024247	0.0301	0.7393809068020677	0.5783641943479311	0.129	0.897228464259127	0.2716217744195172	0.023	0.8215203044434013	0.18258440542170482	0.2179	0.873676404397674	0.18793104909048192	0.1804	0.9499826189994467	0.2357852820928849	-0.0119	0.40409954776390583	1.2551202719887844	0.0008	0.28141384442956385	1.4273490826296666	0.0655	0.282891522766386	1.2960101789053153	0.1076	0.36612325480593266	1.155157616865838	-0.01275	0.3802740022275149	0.9547755730085732	0.0702	0.35272184597955825	0.769340964556022	0.1076	0.5196139018453705	1.242574252060567	-0.01275	0.6619204720123588	1.056433796942982	0.0702	0.6975741736145324	0.8721443704661553	0.1076
181	6.050233426704015	0.5624281431014201	0.8311255885075259	0.0301	0.516240311479227	0.8024833906131024	0.0301	0.5745061995997637	0.4992451466107719	0.129	0.7239075426624132	0.24653980071706896	0.023	0.6732192921915771	0.13870776938361642	0.2179	0.6630765145711655	0.15094080518527342	0.1804	0.7711218235953832	0.2154221716626485	-0.0119	0.6141944678251849	0.849731565296973	0.0301	0.7358463226656614	0.5766890664864213	0.129	0.8948730665664025	0.2705778737219466	0.023	0.8158492404529639	0.17874933247017372	0.2179	0.8676210033180284	0.18400448544655354	0.1804	0.9482319931986387	0.23762369268484157	-0.0119	0.3968858388814296	1.2518667491320266	0.0008	0.27713490251657724	1.4248386058963876	0.0655	0.2769901578915365	1.2948005103310725	0.1076	0.3572974033090434	1.1500980910665421	-0.01275	0.37153625841509996	0.952586829816338	0.0702	0.3510409632256406	0.766474616063327	0.1076	0.5173423174651445	1.2380258266030073	-0.01275	0.6594053605320414	1.0509658142399407	0.0702	0.6972101516712401	0.8684564091044891	0.1076
182	6.083660130718954	0.5568026684881658	0.82845792516824	0.0301	0.5083336924100708	0.7989615818644517	0.0301	0.5710439206491768	0.49642917176573564	0.129	0.7154645732495084	0.2402522417102255	0.023	0.6739142749768966	0.13264916039838415	0.2179	0.6603531663426678	0.14332468653947106	0.1804	0.7627648436832237	0.20999475873763465	-0.0119	0.6083769536802032	0.8484008471023129	0.0301	0.7314367741573826	0.575821101870467	0.129	0.8929967818595654	0.270267247644648	0.023	0.811072566011947	0.17726488514006716	0.2179	0.86197220960774	0.18222807481051526	0.1804	0.9461817318944126	0.2393002076641247	-0.0119	0.3889647880538114	1.2491134827516446	0.0008	0.27276795511218965	1.4208125482373748	0.0655	0.2708789286573099	1.2934776052718224	0.1076	0.3461925299944913	1.1444012432357809	-0.01275	0.36319589821433473	0.9484705336767255	0.0702	0.35096499371334566	0.7623313162590669	0.1076	0.5152134556296962	1.232308918891015	-0.01275	0.6557447260806579	1.0500497254856556	0.0702	0.6954901803943115	0.869884291154631	0.1076
183	6.117086834733893	0.5508107258023374	0.825375483005809	0.0301	0.5002457315130896	0.7955551579515147	0.0301	0.5680917869179376	0.49480682243124313	0.129	0.7166976899776615	0.23844084835756296	0.023	0.6780505016655043	0.13051577477182247	0.2179	0.6635280268574211	0.13991800409920485	0.1804	0.7651118066317004	0.20796482777522107	-0.0119	0.602441163530235	0.8483936758669941	0.0301	0.726000985358282	0.5748261468679757	0.129	0.8912013737731392	0.27120490207623077	0.023	0.8106054123694801	0.17822436539877393	0.2179	0.8616792866227397	0.18340616034444013	0.1804	0.9434994463155932	0.24005180185307834	-0.0119	0.3797687680089875	1.2465911832110614	0.0008	0.26770762055119646	1.4160452766461706	0.0655	0.26506897391366874	1.2915442909488524	0.1076	0.3332960414221578	1.1382838462164846	-0.01275	0.35457638329473534	0.9442291258334627	0.0702	0.3523703437315353	0.7593700267599727	0.1076	0.5106882754175249	1.2272860147772304	-0.01275	0.6505006555751298	1.054184232117507	0.0702	0.6926402294484464	0.8765922646836263	0.1076
184	6.150513538748832	0.5442661831011895	0.8223179675046614	0.0301	0.4922931363141851	0.7922554008521897	0.0301	0.5684298461543293	0.4919014503821656	0.129	0.7223404163979711	0.23843170602402897	0.023	0.6813355845174546	0.1305074847254555	0.2179	0.6671313289450291	0.13928499771503075	0.1804	0.7698682596070815	0.20723779413668397	-0.0119	0.5961473486501729	0.8480374387954361	0.0301	0.7195372011986952	0.5728325379949107	0.129	0.8899609242291623	0.27247995268129843	0.023	0.8134913273132157	0.18004202398619493	0.2179	0.865407667335174	0.18589278255349886	0.1804	0.9409931574870278	0.23976296020544496	-0.0119	0.37026119878115127	1.2437304065155201	0.0008	0.2616893296837256	1.4118099785840041	0.0655	0.2574859977557368	1.2887894162421352	0.1076	0.31784259465932524	1.134353844379325	-0.01275	0.3466173126054512	0.9420368343032602	0.0702	0.3543277239075066	0.7596267399559378	0.1076	0.5043577105828385	1.2235829132090497	-0.01275	0.6461538654763372	1.0574404158490527	0.0702	0.6904967116193831	0.8824031108029549	0.1076
185	6.183940242763772	0.5372661118352128	0.8209485263676143	0.0301	0.48485969559887876	0.7890477886997052	0.0301	0.571629803074533	0.48734815703456114	0.129	0.7265960161196241	0.23847509429196465	0.023	0.6829340240211631	0.1298325958861548	0.2179	0.6689283437737814	0.13955351428662724	0.1804	0.7719686929943187	0.2069190471325697	-0.0119	0.5891767574808175	0.8466827409850253	0.0301	0.7132944179575934	0.5716425025330331	0.129	0.8896504742003869	0.2729037978788657	0.023	0.8165505385854381	0.18114057512225265	0.2179	0.8694944380860189	0.18775877567443439	0.1804	0.9403611232690967	0.2391663962714699	-0.0119	0.3610467125969682	1.2403582982178127	0.0008	0.25526644067913884	1.408655282651722	0.0655	0.2481909186523265	1.2860539525233887	0.1076	0.2998379872059634	1.1338925558847628	-0.01275	0.33972243683440356	0.9416341443462273	0.0702	0.35545211081070016	0.7624160169972041	0.1076	0.4978787488416797	1.22102693590192	-0.01275	0.6438181584016781	1.0569983800023568	0.0702	0.6901300567199579	0.8835971196960416	0.1076
186	6.217366946778712	0.5297508968358553	0.8216264199600002	0.0301	0.47758541227683243	0.785974831682712	0.0301	0.5741590021296151	0.48448770276186703	0.129	0.7276061658395675	0.23890830621384554	0.023	0.683946333325115	0.12877901108043532	0.2179	0.6698367143793703	0.1396716016995471	0.1804	0.772193417205774	0.20718703212183606	-0.0119	0.5821015829366052	0.8457547508555356	0.0301	0.7091631937662883	0.5737869830483799	0.129	0.889544899249287	0.2725583521828527	0.023	0.8179740091583432	0.18125374482268133	0.2179	0.8712030829229989	0.18744813831493745	0.1804	0.9415446946580583	0.23859370440014604	-0.0119	0.3512940884751241	1.237060540441441	0.0008	0.24824221559942816	1.4059737822392244	0.0655	0.24043247049179037	1.284064739893571	0.1076	0.2823854240504789	1.1334381085862535	-0.01275	0.33261210743220737	0.9404696799815411	0.0702	0.3544366870421986	0.7646746261230654	0.1076	0.4912206042410239	1.2198614699195416	-0.01275	0.6414371303044583	1.056010967146744	0.0702	0.6909942919299594	0.8828764293760916	0.1076
187	6.250793650793651	0.5228460185183942	0.8232610098374966	0.0301	0.47091793473292415	0.7834830830867383	0.0301	0.5737324218760899	0.4856265438086235	0.129	0.726740668121723	0.24007125430812787	0.023	0.6857752210098828	0.12924312378184766	0.2179	0.6710724574815892	0.1399502689459733	0.1804	0.772516175071813	0.20777551429723232	-0.0119	0.5771329687853499	0.8465873515681773	0.0301	0.7066077971569624	0.5792702934404352	0.129	0.8876848404140706	0.2727761255218335	0.023	0.8189956081951176	0.18199521776046215	0.2179	0.8712644764193153	0.18577039503553006	0.1804	0.9414507235051032	0.2380979804465985	-0.0119	0.340933893845375	1.2343579839317478	0.0008	0.23962929280268747	1.4026589898495399	0.0655	0.23500286875040496	1.2820789157559955	0.1076	0.26909123571280236	1.1285119058163535	-0.01275	0.3245056786272187	0.9369369302221171	0.0702	0.3511842418469678	0.7642278028947344	0.1076	0.48405836491217985	1.2202618169739365	-0.01275	0.6370487450282166	1.0565571118156725	0.0702	0.6918420868846805	0.8838936908279191	0.1076
188	6.28422035480859	0.5182772051891303	0.8243281477481271	0.0301	0.4657953129156271	0.7818488369319386	0.0301	0.5717890704827234	0.48889291518335454	0.129	0.7254582650003972	0.24071025236383672	0.023	0.6885918701544568	0.13110668141276038	0.2179	0.6721893645708723	0.14089835864408543	0.1804	0.7726795961627148	0.2073891651256813	-0.0119	0.5750801721067066	0.848333407759367	0.0301	0.7032882201003186	0.5856857015856461	0.129	0.8838664317878033	0.2748183094665893	0.023	0.8213682676560334	0.18506228067232833	0.2179	0.8729803823784821	0.18743198978823578	0.1804	0.9380431282789509	0.23871475343322424	-0.0119	0.3316651090384345	1.2320826152618294	0.0008	0.23013184232657952	1.3987038561377012	0.0655	0.22959082814573303	1.279272198896876	0.1076	0.2602986725791937	1.1196978010393175	-0.01275	0.31600958283853103	0.9322057622643054	0.0702	0.34758131540119885	0.7618450759393428	0.1076	0.47706278551159575	1.2216630431561903	-0.01275	0.6302271520574082	1.0588767470802085	0.0702	0.6918521476309994	0.8889781080682008	0.1076
